<svg xmlns="http://www.w3.org/2000/svg" viewBox="0 0 96 31.71" xmlns:v="https://vecta.io/nano"><path d="M95.76 0L84.59 5.31c-3.01.8-5.94 1.42-9.04 1.5-2.48.19-4.87-.07-7.26-.53-2.39-.36-4.96-.8-7.54-.8-2.57 0-5.05.18-7.54.98-1.33.26-2.48.8-3.55 1.15-.54.18-1.15.26-1.68.36-.54-.08-1.15-.18-1.68-.36-1.06-.36-2.21-.88-3.55-1.15-2.48-.8-4.96-.98-7.54-.98-2.57 0-5.14.44-7.54.8-2.39.44-4.79.7-7.26.54-3.11-.08-6.03-.7-9.04-1.5L.24 0C-.03.44-.03.97.06 1.06c0 .26 0 .36.18.44.18.45.26.63.36.71.26.08.26.26.36.36.36.26.7.62.98.8l1.86 1.5L7.61 7.7c5.05 3.89 10.1 7.36 14.62 11.07 1.15.88 2.21 1.77 3.28 2.75 1.15.98 2.39 2.04 3.63 2.83 2.39 1.68 4.96 3.19 7.54 4.35 3.73 1.42 7.44 2.48 11.07 3.01h.54c3.63-.54 7.36-1.6 11.07-3.01 2.57-1.15 5.14-2.66 7.54-4.35 1.24-.8 2.48-1.86 3.63-2.83 1.06-.98 2.13-1.86 3.28-2.75 4.51-3.73 9.57-7.18 14.62-11.07l3.81-2.83 1.86-1.5c.26-.18.62-.54.98-.8.08-.08.08-.26.36-.36.08-.08.18-.26.36-.7.18-.08.18-.18.18-.44.04-.1.04-.63-.22-1.07zm-24.2 16.21c-1.24.88-2.39 1.86-3.45 2.83-1.06.88-2.13 1.77-3.28 2.57-2.13 1.6-4.51 2.93-7 3.99-3.19 1.6-6.56 2.48-9.84 2.93-3.28-.44-6.64-1.33-9.84-2.93-2.48-1.06-4.87-2.39-7-3.99-1.15-.8-2.21-1.68-3.28-2.57-1.06-.98-2.21-1.95-3.45-2.83-4.17-3.63-8.78-6.92-13.47-10.45.8.36 1.33.54 2.13.88 2.31.7 4.79 1.24 7.36 1.5 2.48.26 5.05.08 7.54-.26 2.48-.26 4.87-.7 7.26-.7s4.87.18 7.09.8c1.24.26 2.39.62 3.63 1.06.7.26 1.24.36 1.86.36.08.08.08.08.18.08.08 0 .08 0 .18-.08.62 0 1.15-.08 1.86-.36 1.24-.44 2.39-.8 3.63-1.06 2.21-.62 4.69-.8 7.09-.8 2.39 0 4.79.44 7.26.7 2.48.36 5.05.54 7.54.26 2.57-.26 5.05-.8 7.36-1.5.8-.36 1.42-.54 2.13-.88-4.71 3.54-9.32 6.82-13.49 10.45z" fill="#fff"/></svg>