<svg xmlns="http://www.w3.org/2000/svg" viewBox="0 0 29 96" xmlns:v="https://vecta.io/nano"><g fill="#fff"><path d="M21.38 83.78c-.03.03-.03.03-.05.03v-.05c.03.02.03.02.05.02z"/><path d="M21.44 83.76v.05c-.03 0-.03 0-.05-.03.02 0 .02 0 .05-.02z"/></g><path d="M28.85 79.19c-.52 4.8-2.94 9.42-6.57 12.61-2.2 1.93-4.63 3.29-7.41 4.11-.1.09-.16.09-.32.09s-.32 0-.42-.09c-2.78-.85-5.24-2.18-7.41-4.11C3.1 88.61.64 83.99.15 79.19c-.26-2.53-.1-4.61-.1-6.79l.1-6.64.16-13.11C.54 35.04 1.02 17.47 1.86 0l1.62 52.61.16 13.11.1 6.64c0 2.18 0 4.46.16 6.32a16.35 16.35 0 0 0 5.47 10.08c1.52 1.36 3.2 2.34 5.15 3.03 1.84-.66 3.53-1.67 5.05-3.03 2.94-2.53 4.98-6.23 5.47-10.08.16-1.86.16-4.11.16-6.32l.1-6.64.16-13.11L27.1 0c.84 17.47 1.36 35.04 1.62 52.61l.16 13.11.1 6.64c-.03 2.22.13 4.3-.13 6.83z" fill="#ffd600"/></svg>